<?xml version="1.0" encoding="utf-8"?>
<!-- Generator: Adobe Illustrator 27.0.0, SVG Export Plug-In . SVG Version: 6.00 Build 0)  -->
<svg version="1.1" id="Calque_1" xmlns="http://www.w3.org/2000/svg" xmlns:xlink="http://www.w3.org/1999/xlink" x="0px" y="0px"
	 viewBox="0 0 1024 1024" style="enable-background:new 0 0 1024 1024;" xml:space="preserve">
<style type="text/css">
	.st0{opacity:0.982;fill:#020202;enable-background:new    ;}
</style>
<g>
	<path class="st0" d="M1021.6,472.6c-0.4-7-1-13.9-1.9-20.9c-0.6-4.5-2.2-8.6-4.7-12.3c-0.3-6.1-1.2-12.1-2.8-18
		c-5.8-8.6-8.9-18.1-9.5-28.5c-0.9-2.4-2.1-4.7-3.8-6.6c-0.3-2.2-0.6-4.4-0.9-6.6c-3.7-5.4-5.9-11.4-6.6-18
		c-13.9-23.6-26.5-48-38-73.1c-9.1-9.1-18.3-18.3-27.5-27.5c-2.8-3.3-5.3-6.8-7.6-10.4c-9.5-9.7-19.8-18.5-30.8-26.6
		c-2.8-2.6-5-5.6-6.6-9c-2.6-0.4-5.1-1-7.6-1.9c-5.6-4.1-10.3-9-14.2-14.7c-2.8-2.9-5.9-5.3-9.5-7.1c-1.9-2.8-4.1-5.3-6.6-7.6
		c-7.4-2-12.8-6.4-16.1-13.3c-12.7-7.9-25.3-15.8-38-23.7c-1.5-2.5-3.4-4.7-5.7-6.6c-7.4-3.4-14.9-6.3-22.8-8.5
		c-1.6-1.6-3.2-3.2-4.7-4.7c-6.3-2.8-12.7-5.7-19-8.5c-1.5-2.1-3.3-3.7-5.7-4.7c-9.3-4.9-18.5-9.9-27.5-15.2
		c-14.5-0.1-27.8-4.1-39.9-11.9c-0.7-1.4-1.3-2.8-1.9-4.3c-16.3-8.7-33.7-13.8-52.2-15.2c-8.5,0-17.1,0-25.6,0
		c-4.2-0.5-8-2.1-11.4-4.7c-6.9-0.3-13.4-2-19.5-5.2c-14.7,0.6-29.4,1.3-44.1,1.9c-19-1.1-37.9-0.9-56.9,0.5c-9.1,2.8-18.1,5.8-27,9
		c-9.9,1.4-19.9,2.2-29.9,2.4c-6.2,1.7-12.5,2.9-19,3.8c-9.9,3.1-19.4,7.2-28.5,12.3c-1.1,2.5-2.7,4.8-4.7,6.6
		c-5.8,3.5-11.8,6.5-18,9c-5.5-0.9-10.9-0.1-16.1,2.4c-6.5,4.2-13.4,7.4-20.9,9.5c-9.6,7.8-20,14.5-31.3,19.9
		c-4.1,2.5-7.9,5.3-11.4,8.5c-4.6,1-9.1,2.6-13.3,4.7c-3.2,3.2-6.3,6.3-9.5,9.5c-12.4,7.8-24.4,16-36.1,24.7
		c-2.2,2.8-4.4,5.7-6.6,8.5c-5.9,2.8-10.7,6.9-14.2,12.3c-7.8,3.9-13.5,9.7-17.1,17.6c-4.8,3.3-9.8,6.2-15.2,8.5
		c-3.9,5.3-8.3,10.2-13.3,14.7c-6.3,3.8-11.4,8.9-15.2,15.2c-7.3,3.5-14.6,7-21.8,10.4c-3.6,4.2-6.6,8.8-9,13.8
		c-0.7,3.3-1.6,6.4-2.8,9.5c-3,3.5-5.5,7.3-7.6,11.4c-2.9,10.8-7.3,20.9-13.3,30.4c-5.2,15.2-12.2,29.4-20.9,42.7
		c-2.6,8.1-5,16.4-7.1,24.7c-1.3,2.1-2.4,4.3-3.3,6.6c-1,6.7-2.3,13.3-3.8,19.9c-2.1,2.2-3.7,4.8-4.7,7.6
		c-1.3,6.9-2.2,13.9-2.8,20.9c-0.9,2.7-2.2,5.3-3.8,7.6c-0.5,11.7-1.9,23-4.3,34.2c0,6.6,0,13.3,0,19.9c2.8,4.6,5.5,9.3,8.1,14.2
		c0.3,6.6,0.6,13.3,0.9,19.9c2.7,6.6,5.2,13.2,7.6,19.9c1.5,11.1,6.4,20.4,14.7,28c11.7,6,18.3,2.7,19.9-10c-1-12.5-3.1-24.9-6.2-37
		c-6.4-12.8-8.9-26.4-7.6-40.8c-0.5-4-1.9-7.6-4.3-10.9c0.7-1,1.1-2.1,1.4-3.3c-0.3-11.2,1.6-22,5.7-32.3c-0.6-8,1.3-15.3,5.7-21.8
		c1.6-7,3.2-13.9,4.7-20.9c3.4-5.6,5.3-11.6,5.7-18c10.2-22.2,20.3-44.3,30.4-66.4c5.7-8.9,11.4-17.7,17.1-26.6
		c7.7-7.5,14.5-15.8,20.4-24.7c2.9-1.5,5.6-3.4,8.1-5.7c2.7-4.5,5.7-8.8,9-12.8c1.6-0.8,3.2-1.6,4.7-2.4
		c7.9-9.4,17.4-16.8,28.5-22.3c3.5-3,6.2-6.7,8.1-10.9c5.2-3.9,9.8-8.5,13.8-13.8c8.2-5,16.4-10.1,24.7-15.2c2-2.3,3.5-5,4.3-8.1
		c1.7-0.8,3.1-1.9,4.3-3.3c9.5-3.8,17.8-9.5,24.7-17.1c3.6-1.3,7.1-2.9,10.4-4.7c7.1-6.7,15.3-11.5,24.7-14.2
		c5.8-4.6,12.2-8.3,19-11.4c18.9-6.6,37.2-14.5,55-23.7c11.7-2.8,22.4-7.5,32.3-14.2c22.4-5.7,45.2-8.6,68.3-8.5
		c1.9-0.9,3.8-1.9,5.7-2.8c24.4-0.6,48.7-0.6,73.1,0c2.5,1.4,5.2,2.2,8.1,2.4c22.6-1.1,44.9,0.9,66.9,6.2c8.2,5,17.1,8.7,26.6,10.9
		c5.6,6,12.3,10.6,19.9,13.8c22.7,4.6,44.6,11.9,65.5,21.8c5.8,3.3,11.2,7.1,16.1,11.4c29.7,12.9,55.9,30.6,78.8,53.1
		c3.3,2.5,6.8,4.7,10.4,6.6c1.8,3.4,4.1,6.6,6.6,9.5c10.5,6.5,20.6,13.5,30.4,20.9c3.9,3.5,7.2,7.5,10,11.9c3.1,3.7,6.7,6.7,10.9,9
		c6.1,8.2,13.1,15.6,20.9,22.3c7.9,10.7,15.3,21.8,22.3,33.2c7.3,17.3,15.9,33.7,25.6,49.4c3,12.7,7.1,25,12.3,37
		c0.9,3.4,1.5,6.9,1.9,10.4c2.3,1.7,3.9,3.9,4.7,6.6c0.9,5.7,1.6,11.4,1.9,17.1c1.6,2.5,3.2,5.1,4.7,7.6c0.3,6.3,0.6,12.7,0.9,19
		c0.7,3.9,1.8,7.7,3.3,11.4c-1.3,1.5-2.4,3-3.3,4.7c-0.3,9.5-0.6,19-0.9,28.5c-0.6,4.5-2.2,8.6-4.7,12.3c-0.7,6.5-2.3,12.9-4.7,19
		c-0.8,7-1.6,13.9-2.4,20.9c-0.4,13.1,5.6,17.7,18,13.8c10.2-10.2,16-22.3,17.6-36.5c5.5-11.3,7.7-23.4,6.6-36.1
		c3.3-2.2,5.7-5,7.1-8.5c0-8.9,0-17.7,0-26.6C1022.8,477.3,1022,475.1,1021.6,472.6z"/>
	<path class="st0" d="M797.2,437.9c2.2-3.6,3.6-7.6,4.3-11.9c1.1-14.2-0.5-28.2-4.7-41.8c-0.5-14.6-1.5-29.1-2.8-43.7
		c-2.6-4.4-4.2-9.1-4.7-14.2c-2.1-3.3-4-6.8-5.7-10.4c-6.9-23.3-16.4-45.5-28.5-66.4c-17.6-18.5-35.4-36.7-53.6-54.6
		c-1.9-0.9-3.8-1.9-5.7-2.8c-17.1-15.4-36.7-26.6-58.8-33.7c-2.5,0.9-5,1.1-7.6,0.5c-6.9-4.3-14.2-6.8-21.8-7.6
		c-40.5-1.9-81-4.6-121.5-8.1c-8.1,0.8-16.3,1.3-24.7,1.4c-3.7,0.4-7.4,1.2-10.9,2.4c-1.3-0.2-2.6-0.5-3.8-0.9
		c-6.1,2.3-12.4,3.5-19,3.8c-19.6-2.7-39-2.3-58.4,1.4c-6.6,3.3-12.9,7.1-19,11.4c-17.1,4.8-31.5,13.8-43.2,27
		c-0.3,2-0.8,3.8-1.4,5.7c-10.1,3.6-18.8,9.3-26.1,17.1c-2.7,2.9-3,6.1-0.9,9.5c4.7,3.6,8.9,7.6,12.8,11.9c4.4,1,8.2,3.1,11.4,6.2
		c1.4,5,3.5,9.8,6.2,14.2c12.9,13,26,25.5,39.4,37.5c-0.3,0.3-0.6,0.6-0.9,0.9c11,11.6,22,23.1,33.2,34.6c2.6,2.8,5.8,4.7,9.5,5.7
		c0.6-0.2,1-0.5,1.4-0.9c2.7,2.7,5.4,5.4,8.1,8.1c-0.3,0.3-0.6,0.6-0.9,0.9c2.2,2.6,4.3,5.3,6.2,8.1c9.2,10.2,19.6,17.8,31.3,22.8
		c4.3,4,8.9,7.7,13.8,10.9c15.3,7,29.4,15.7,42.2,26.1c5.7,2.5,11.3,6,16.6,10.4c6.3,2.2,12.3,4.9,18,8.1
		c10.2,6.4,20.8,12.3,31.8,17.6c0.4-0.4,0.9-0.8,1.4-0.9c2.5,1.3,5.1,2.5,7.6,3.8c5,4.3,10.6,7.8,16.6,10.4c1.5-0.6,2.7-0.6,3.8,0
		c2.3-3.4,4.6-6.7,7.1-10c5.2-0.5,9.9-2,14.2-4.7c3.6-0.9,7.2-1.3,10.9-1.4c6.4,1,12.9,1.8,19.5,2.4c8.7,5.6,17.6,11.8,26.6,18.5
		c11,4.6,22.7,7.2,35.1,8.1c15.6,10.6,26.5,24.7,32.7,42.2c0.3-0.3,0.6-0.6,0.9-0.9c8.7,4.4,18,7.3,28,8.5
		c-0.5-4.6-0.8-9.2-0.9-13.8c1.1-8.3,1.8-16.5,1.9-24.7c0-1.9-0.8-3.3-2.4-4.3c-2.3-5.2-1.7-10,1.9-14.2c1.7-9,1.6-18-0.5-27
		c0.9-6,3-11.5,6.2-16.6c0.7-3.5,0.6-7-0.5-10.4c2.6-7.2,6.6-13.5,11.9-19c0.2,14.2,0.2,28.4,0,42.7c-0.9,0.8-1.5,1.7-1.9,2.8
		c-1.9,18.7-1.9,37.3,0,56c1.8,3.3,4,3.6,6.6,0.9c2.4-5.4,3.6-11.1,3.8-17.1c1.6-3.8,3.2-7.6,4.7-11.4c1.1-8.3,2.6-16.5,4.3-24.7
		C797.7,439.6,797.4,438.8,797.2,437.9z"/>
	<path class="st0" d="M776.3,555.6c-3.2-1.6-6.3-3.2-9.5-4.7c-7.4-1.6-14.6-3.5-21.8-5.7c-5.1-3.7-10.8-5.8-17.1-6.2
		c2.4,34.7-9,63.9-34.2,87.8c-10.2,4-20,8.7-29.4,14.2c-2.5,0.8-5,1.3-7.6,1.4c-8.4-2.2-16.9-3.4-25.6-3.3
		c-4.9-2.6-9.7-5.5-14.2-8.5c-4.1-0.5-7.8-1.8-11.4-3.8c-11.6-8.3-23.3-16.3-35.1-24.2c-8.9-10.3-17.6-20.7-26.1-31.3
		c-0.8-2.4-1.6-4.7-2.4-7.1c2.1-9.2,3.2-18.5,3.3-28c5-7.1,8.2-15,9.5-23.7c4.1-3.5,6-7.9,5.7-13.3c-4.4-3.5-9.3-6.2-14.7-8.1
		c-1.2-2.2-2.8-4.1-4.7-5.7c-3.9-2.1-7.4-4.8-10.4-8.1c-3.1-0.9-6-2.3-8.5-4.3c-7.2-7.7-15.5-14-24.7-19
		c-7.2-6.3-15.1-11.3-23.7-15.2c-4.4-4.1-8.5-8.5-12.3-13.3c-2.2-0.8-4.4-1.4-6.6-1.9c-6.6-5.2-13.9-9.3-21.8-12.3
		c-7.1-4.7-14.4-9.1-21.8-13.3c-2.2-2.2-4.4-4.4-6.6-6.6c-9.5-3.8-15.7-10.6-18.5-20.4c-13.3-13.3-26.5-26.5-39.9-39.9
		c-3.3-3.3-5.8-7.1-7.6-11.4c-4.4-2.4-8.6-5.2-12.3-8.5c-1.2-4.7-4-7.8-8.5-9.5c-2.1-3.9-4.8-7.4-8.1-10.4
		c-11.6-9.7-21.4-20.7-29.4-33.2c-5.5-4.1-10.6-8.7-15.2-13.8c-1.2-0.5-2.5-0.6-3.8-0.5c-5.6,9.3-10.8,19.2-15.7,29.4
		c-0.4,5.6-1.7,11-3.8,16.1c-1.6,2.9-3.2,5.7-4.7,8.5c-2.7,11.4-5.5,22.8-8.5,34.2c-1,2.4-2.3,4.6-3.8,6.6c-2.4,8-4,16.2-4.7,24.7
		c-0.9,1.9-1.9,3.8-2.8,5.7c-0.2,8.7-1.4,17.2-3.8,25.6c-1.6,1.3-2.9,2.9-3.8,4.7c-0.6,8.9-0.6,17.7,0,26.6c2,3.5,3.2,7.3,3.8,11.4
		c0.8,0.8,1.6,1.6,2.4,2.4c-1,1-1.1,2.1-0.5,3.3c1.7,2.7,3.8,5.1,6.2,7.1c-1,2.3-1.2,4.7-0.5,7.1c4.3,4.9,6.8,10.6,7.6,17.1
		c2.3,5.9,5.2,11.6,8.5,17.1c-0.1,3.5,1.2,6.4,3.8,8.5c0.8,3.1,1.5,6.3,1.9,9.5c1.5,3.7,4.2,5.6,8.1,5.7c0.7-3.8,0.8-7.6,0.5-11.4
		c-3.3-2.9-4.2-6.4-2.8-10.4c-1.9-4.7-4-9.3-6.2-13.8c1.2-3.7,0.1-6.8-3.3-9c-1-5-1.7-10.1-1.9-15.2c-8-9.4-11.3-20.1-10-32.3
		c1.2,2.7,2.6,5.2,4.3,7.6c5.1,5.7,10.8,10.8,17.1,15.2c1.3,3,2.9,5.8,4.7,8.5c0.7,5.2,2.9,9.6,6.6,13.3c0.3,2.8,0.6,5.7,0.9,8.5
		c7.1,10,10,21,8.5,33.2c-2.3,13.9-4,27.8-5.2,41.8c0.6,3.1,1.5,6.1,2.8,9c-2.4,3.3-2.1,6.5,0.9,9.5c-5.5,8.1-8.5,17.1-9,27
		c-0.6,0.6-1.3,1.3-1.9,1.9c-1,4.2-2.1,8.3-3.3,12.3c0.2,1.6,0.9,3,1.9,4.3c-2.7,5-2.4,9.7,0.9,14.2c-0.8,3-1,6.3-0.5,10
		c1.4,3.3,2.3,6.8,2.8,10.4c1.7,1.2,2.6,2.7,2.8,4.7c0.3,2.8,0.6,5.7,0.9,8.5c3.1,8.6,6.7,17.3,10.9,26.1c1,1.2,2.1,2.3,3.3,3.3
		c1.5,8.6,5.5,16.4,11.9,23.3c11.8,4.4,22.2,10.9,31.3,19.5c0.6-0.2,1-0.5,1.4-0.9c2,0.7,4,1.2,6.2,1.4c5.8,8.7,13.4,15.3,22.8,19.9
		c3.7,3.6,7.2,7.4,10.4,11.4c12.7,5,24.9,10.8,36.5,17.6c0.6,1.3,1.3,2.5,1.9,3.8c0.3,3.5,0.5,6.8,0.5,10c-1.8,2.7-2.9,5.7-3.3,9
		c-0.9,6.3-0.4,12.5,1.4,18.5c-0.4,0.4-0.8,0.9-0.9,1.4c1.2,2.9,3.1,5.3,5.7,7.1c3.3,1.8,6.3,1.4,9-1.4c0.3-6.2,0.8-12.4,1.4-18.5
		c-1.7-6.1-2.2-12.2-1.4-18.5c2-2.4,4.3-4.3,7.1-5.7c12,1.8,24.2,3.7,36.5,5.7c0.7,1.2,1.2,2.4,1.4,3.8c-2.4,12.9-3.5,25.8-3.3,38.9
		c3.4,6.4,8,7.3,13.8,2.8c6.5,3.9,10,1.9,10.4-6.2c-0.6-6.5-1.1-13-1.4-19.5c-0.8-2.9-2.2-5.4-4.3-7.6c2.7-6.8,7.1-8.6,13.3-5.7
		c3.3-0.1,6.5-0.7,9.5-1.9c4.6,1.1,9.2,1.1,13.8,0c3.5,0,6.6,0.9,9.5,2.8c0.6,1.9,0.6,3.8,0,5.7c-5.2,8.9-5.7,18.1-1.4,27.5
		c4.6,1.9,7.8,5.3,9.5,10c3.7-0.7,7.3-0.5,10.9,0.5c0.4-0.4,0.9-0.8,1.4-0.9c1.2-13.1,1.2-26.3,0-39.4c-0.2-2.6,0.8-4.7,2.8-6.2
		c3.9,2,7.9,2.9,11.9,2.8c6.2-1.9,12-4.5,17.6-7.6c4.3-0.2,7,1.7,8.1,5.7c0,10.9,0.9,21.6,2.8,32.3c2.5,2.3,3.8,5.1,3.8,8.5
		c3.9,0.9,7.9,0.7,11.9-0.5c6.1-1.2,8.6-4.8,7.6-10.9c-1-7.2-1.8-14.5-2.4-21.8c-2.2-2.9-3.3-6.2-3.3-10c0.3-3.3,0.8-6.7,1.4-10
		c5.6-6.2,12.4-10,20.4-11.4c0.6,0.3,1.3,0.6,1.9,0.9c3.9-0.8,7.9-1.5,11.9-1.9c2.7-0.1,4.2,1.2,4.7,3.8c0.2,5.7,0.7,11.4,1.4,17.1
		c-1.9,2.8-3.1,6-3.3,9.5c-0.5,4.4-0.6,8.8-0.5,13.3c3.9,0,7.7-0.7,11.4-1.9c2.2,0.9,4.4,1,6.6,0.5c1.5-3.1,2.3-6.4,2.4-10
		c1.6-1,2.4-2.4,2.4-4.3c-1.8-6.7-3.2-13.5-4.3-20.4c-0.8-4.2-0.5-8.3,0.9-12.3c10.7-2.3,21.3-5,31.8-8.1c2.1-2.7,4.1-5.4,6.2-8.1
		c3.7-8.8,7.1-17.7,10.4-26.6c1.7-3,3.6-5.9,5.7-8.5c16.9-16,34.3-32.2,52.2-48.4c3.2-5.1,6.3-10.1,9.5-15.2
		c-0.2-4.6,1.1-8.7,3.8-12.3c0.3-5.1,0.6-10.1,0.9-15.2c2.6-17.2,6.1-34.3,10.4-51.2c0.7-3.3,0.3-6.4-0.9-9.5
		C783.5,564.3,780.2,559.7,776.3,555.6z M468.3,581.7c-2.3,8-7,14-14.2,18c-0.7,4.8-2.8,8.9-6.2,12.3c-5.2,1-10.2,2.4-15.2,4.3
		c-6.1,3.7-12.4,6.8-19,9.5c-3.5,0.3-7,0.6-10.4,0.9c-3.7,1.3-7.3,2.4-10.9,3.3c-11.7-0.2-23.2-0.6-34.6-1.4
		c-5.8-3.4-11.8-6.6-18-9.5c-4-3.3-7.1-7.3-9.5-11.9c-8.4-6.3-15.9-13.6-22.3-21.8c-2.2-7.7-5.4-15-9.5-21.8
		c-2.8-11.6-3.1-23.3-0.9-35.1c10.4-12,19.9-24.6,28.5-38c6.5-5.6,13.3-10.8,20.4-15.7c8.7-2.1,17.2-4.8,25.6-8.1
		c1.5,0.6,2.9,0.9,4.3,0.9c2.1-0.5,3.8-1.4,5.2-2.8c3.3,0,6.8,0.2,10.4,0.5c5.5,1.7,11,3.1,16.6,4.3c0.4-0.4,0.9-0.8,1.4-0.9
		c7.6,2.2,14.5,5.5,20.9,10c1.1,3.8,3.5,6.5,7.1,8.1c6.3,9.1,12.9,18,19.9,26.6C469.9,534.5,473.4,557.3,468.3,581.7z M549.9,726.9
		c-1.3,5.3-2.2,10.7-2.8,16.1c-1.9,4.9-5.6,7.5-10.9,7.6c-6.7-1.7-12.9-4.5-18.5-8.5c-0.6-5.9-3.6-7.3-9-4.3
		c-2.6,2.6-5.1,5.1-7.6,7.6c-2.4,0.3-4.8,0.8-7.1,1.4c-4.9-0.4-9.7-1.3-14.2-2.8c-0.8-3-2.4-5.5-4.7-7.6c-0.1-4.3-1.1-8.4-2.8-12.3
		c0-8.9,0.8-17.8,2.4-26.6c-0.6-4-1.2-7.9-1.9-11.9c3-14.6,6.7-29,10.9-43.2c-0.3-6.5,1.3-12.5,4.7-18c0.8-3.8,1.4-7.6,1.9-11.4
		c2.2-2.6,4-5.4,5.2-8.5c3.6-0.7,6.5,0.4,8.5,3.3c0.7,4.9,1.2,9.8,1.4,14.7c2.3,0.9,4.6,1.2,7.1,0.9c-0.6-5.6,1-10.5,4.7-14.7
		c1.7-0.5,3.3-0.2,4.7,0.9c1.4,1.6,3,3,4.7,4.3c4.4,13.2,8.7,26.5,12.8,39.9c-0.3,6.6,1.2,12.6,4.7,18c1.9,9.1,3.9,18.1,6.2,27
		c-2.2,2.9-2.4,5.9-0.5,9C550.6,714.3,550.6,720.6,549.9,726.9z"/>
	<path class="st0" d="M908.7,614.9c2-18.4,5.5-36.4,10.4-54.1c2.6-35.1,5.3-70.2,8.1-105.3c-0.5-7.9-1-15.8-1.4-23.7
		c-2.4-3.1-5.6-5-9.5-5.7c-0.3-7.3-2.5-14-6.6-19.9c-9.5-5.6-19.2-11.2-28.9-16.6c-3.8-0.8-7.6-1.4-11.4-1.9
		c-4.7-3.8-10.1-5.2-16.1-4.3c-0.1,0.6-0.4,1.1-0.9,1.4c-6.7,1.5-13.3,3.1-19.9,4.7c-3.7,1.6-6.7,4-9,7.1
		c-0.9,15.6-2.8,30.8-5.7,45.6c0.7,31.8-1.9,63.5-7.6,94.9c-0.9,2.2-2.2,4-3.8,5.7c-0.9,15.3-1.9,30.8-2.8,46.5
		c-4.2,23.1-6.9,46.7-8.1,70.7c-0.1,5.3,0.4,10.5,1.4,15.7c2.5,1.5,3.9,3.7,4.3,6.6c-1,4.4-1.2,8.8-0.5,13.3
		c2.1,2.1,4.5,3.8,7.1,5.2c7.7,1.5,15.5,2,23.3,1.4c11.4,2,22.9,2.1,34.6,0.5c9.1-5.6,16.2-13,21.4-22.3c3.2-8.4,6.1-16.9,8.5-25.6
		c2.3-2.4,3.9-5.3,4.7-8.5c0.8-7.7,2.1-15.3,3.8-22.8C905.3,620.5,906.9,617.6,908.7,614.9z"/>
	<path class="st0" d="M222.5,607.4c-2.4-17.3-4-34.7-4.7-52.2c-2.4-4-4-8.5-4.7-13.3c-5.4-25-7.9-50.3-7.6-75.9
		c-1.6-11.7-3.5-23.5-5.7-35.1c-0.9-7.3-1.5-14.5-1.9-21.8c-2.4-4-5.7-7-10-9c-7.1-1-14.1-2.6-20.9-4.7c-3.5-0.5-6.9-0.6-10.4-0.5
		c-0.7,1.2-1.7,2.3-2.8,3.3c-4.4,1.1-8.8,2-13.3,2.8c-10.1,5.7-19.9,11.9-29.4,18.5c-1.6,1.8-3,3.7-4.3,5.7
		c-0.5,4.7-0.6,9.5-0.5,14.2c-3.3,0.2-6.3,1.1-9,2.8c-1.1,8.3-1.9,16.7-2.4,25.2c4.1,32.9,6.8,66,8.1,99.2
		c4.9,15.2,8.9,30.5,11.9,46c-1,3.9-0.9,7.9,0.5,11.9c6.5,10,9.7,21.1,9.5,33.2c2.7,2,4.6,4.5,5.7,7.6c0.9,4.5,2.1,9,3.8,13.3
		c3.2,6.3,6.3,12.6,9.5,19c5.3,6.6,11.8,11.8,19.5,15.7c18.1,1.3,36.2,0.3,54.1-2.8c6-0.8,9.5-4.1,10.4-10
		c-1.9-5.9-1.1-11.3,2.4-16.1c0.6-4.3,1.1-8.5,1.4-12.8c-2.3-17.5-4.1-35.1-5.2-52.7C225,615,223.8,611.2,222.5,607.4z"/>
	<path class="st0" d="M967.5,454.6c-3.6-5.5-7.8-10.4-12.8-14.7c-3.5-0.5-6.9-0.6-10.4-0.5c-1.4,1.5-2.8,3.1-4.3,4.7
		c-0.5,6.7-0.3,13.2,0.5,19.5c-0.6,1.9-1.3,3.8-1.9,5.7c0.3,18.6-2,37.1-7.1,55.5c-1.7,16.1-3,32.2-3.8,48.4c-0.7,6-1.7,12.1-2.8,18
		c-3.7,9.2-6.2,18.7-7.6,28.5c-1.7,5.3-3.9,10.3-6.6,15.2c-1.1,8.9-2.3,17.8-3.8,26.6c-1.6,2.8-3.2,5.7-4.7,8.5
		c-1.2,11.1,3.7,15,14.7,11.9c3-2,5.7-4.4,8.1-7.1c5.4-7,10.8-13.9,16.1-20.9c1-5.8,3.5-10.9,7.6-15.2c2.2-8,4.8-15.9,7.6-23.7
		c1.8-9.7,2.8-19.5,2.8-29.4c3.4-9.5,5.3-19.3,5.7-29.4c1.1-1.8,2.1-3.7,2.8-5.7c2.3-22.3,4.1-44.6,5.2-66.9
		c0.4-4.5-0.7-8.4-3.3-11.9C969.1,465.9,968.5,460.2,967.5,454.6z"/>
	<path class="st0" d="M115.3,648.2c-13.2-29.6-20.2-60.6-20.9-93c-3.5-15.4-6.7-30.9-9.5-46.5c-0.7-16.5-1.7-32.9-2.8-49.4
		c-3.4-5.2-8.3-7.1-14.7-5.7c-5.1,4.1-9,9.2-11.9,15.2c-1.6,9.4-3.3,18.8-5.2,28c1.5,23,3.6,45.9,6.2,68.8c1.7,1.2,2.6,2.7,2.8,4.7
		c0.6,10.2,2.9,20,6.6,29.4c1.1,18.5,5.2,36.2,12.3,53.1c3.5,3,5.4,6.8,5.7,11.4c6.7,10.2,14.4,19.5,23.3,28
		c1.3,0.6,2.5,1.3,3.8,1.9c9.4,2.2,14-1.4,13.8-10.9c-1.5-2.1-2.8-4.3-3.8-6.6C118.7,667.2,116.8,657.7,115.3,648.2z"/>
	<path class="st0" d="M727.9,762.1c-3.1,3.8-4.5,8.3-4.3,13.3c-4.8,8.4-8,17.2-9.5,26.6c-2.5,3.4-5.3,6.6-8.5,9.5
		c-0.5,2.6-1.3,5.2-2.4,7.6c3.2,5.6,1.6,9.2-4.7,10.9c-4.4,1.5-7.4,0-9-4.3c-0.5-4.1-0.6-8.2-0.5-12.3c-2.3-0.3-4.5,0-6.6,0.9
		c-3.6,7.2-4.7,14.8-3.3,22.8c2.4,1.7,4.4,3.8,6.2,6.2c-2.3,4.2-5.3,7.8-9,10.9c-0.6,4.9-2.6,9-6.2,12.3c-1.8,2-3.9,2.6-6.2,1.9
		c-5.3,1.2-10,3.4-14.2,6.6c-1.9-1.6-3.5-3.5-4.7-5.7c-1-4.8-2.2-9.6-3.8-14.2c-3.7-3.7-8.1-5.6-13.3-5.7c-5-0.7-7.9,1.5-8.5,6.6
		c-0.6,4.7-0.6,9.5,0,14.2c2.1,1.4,4,2.9,5.7,4.7c0.3,3-0.8,5.3-3.3,7.1c-7.9,4.5-16.1,5.3-24.7,2.4c-1.6,0.2-3.2,0.3-4.7,0.5
		c-5.8,5-10.3,4.3-13.8-2.4c1.6-14.2-4.5-19.7-18.5-16.6c-2.8,0.9-4.1,2.8-3.8,5.7c1.3,5.2,2.1,10.4,2.4,15.7c-3,5.8-7.7,9-14.2,9.5
		c-6.7-1.3-13.4-1-19.9,0.9c-5.6-0.1-10.7-1.7-15.2-4.7c-1.1-4.6-2.7-9-4.7-13.3c-1.4-2.6-3.1-5-5.2-7.1c-5.1-0.6-10.2-0.5-15.2,0.5
		c-0.4,2.5-1.5,4.7-3.3,6.6c2.2,14.9-3.9,20.4-18.5,16.6c-5.5-2.4-11.2-4.2-17.1-5.2c-0.8-0.9-1.6-1.9-2.4-2.8
		c-0.6-3.8-0.4-7.6,0.5-11.4c-0.2-2-0.7-3.9-1.4-5.7c-3.2-2.2-6.6-4.2-10-6.2c-4.2-0.8-8.3-0.4-12.3,0.9c-1.4,2.6-2.5,5.3-3.3,8.1
		c1.8,8-1.2,11.4-9,10c-7-4.7-14.2-9-21.8-12.8c-5.2-6.9-9.8-14.2-13.8-21.8c-1.3-7-3.7-13.7-7.1-19.9c-1.5-0.9-3-1.2-4.7-0.9
		c-1.2,7.1-0.6,14.1,1.9,20.9c-1.6,3.6-4.1,4.8-7.6,3.8c-1.1-2.9-2.9-5.5-5.2-7.6c-1.9-7-4.3-13.8-7.1-20.4c-4.7-0.4-8,1.6-10,6.2
		c-0.6,5.1-0.6,10.1,0,15.2c3.7,6.5,7.8,12.9,12.3,19c1,4.4,2,8.8,2.8,13.3c11.6,18.2,25.5,34.4,41.8,48.4
		c2.8,5.1,5.7,10.1,8.5,15.2c1.8,2.4,4.1,3.4,7.1,2.8c-0.1-1,0-1.9,0.5-2.8c1.3,1.2,2.8,2.3,4.3,3.3c7.3,1.4,13.6,4.5,19,9.5
		c8.7,2.3,17.5,3.5,26.6,3.8c3.6,1,7.1,2.3,10.4,3.8c11.1,0.9,22.2,2.1,33.2,3.3c14.1-3.6,28.3-5.3,42.7-5.2c2.5-0.9,4.9-2,7.1-3.3
		c1.6,0.6,3.2,1.3,4.7,1.9c3.2-1.2,6.5-2,10-2.4c10-0.3,19.9-0.7,29.9-1.4c2.4,0.2,4.8,0.5,7.1,0.9c7-2.7,13.4-6.7,19-11.9
		c7.6-2.8,14.9-6.2,21.8-10.4c9.9-7.7,19.6-15.8,28.9-24.2c9-13.1,17.5-26.3,25.6-39.9c3.2-3.5,6.7-6.7,10.4-9.5
		c3.1-5.3,6.6-10.4,10.4-15.2c2.6-7.1,7.1-12.8,13.3-17.1c1.9-3.8,3.8-7.6,5.7-11.4c0.9-17.8,0.4-35.5-1.4-53.1
		C732,762.4,730.1,761.8,727.9,762.1z"/>
</g>
</svg>
